<svg xmlns="http://www.w3.org/2000/svg" viewBox="0 0 48 48">
  <path fill="#1877F2" d="M24 4C12.95 4 4 12.95 4 24c0 9.97 7.31 18.23 16.87 19.77V29.94h-5.07V24h5.07v-4.54c0-5 2.97-7.77 7.52-7.77 2.18 0 4.46.39 4.46.39v4.9h-2.51c-2.47 0-3.24 1.53-3.24 3.1V24h5.51l-.88 5.94h-4.63v13.83C36.69 42.23 44 33.97 44 24 44 12.95 35.05 4 24 4z"/>
  <path fill="#FFF" d="M29.58 29.94 30.46 24H24.95v-3.92c0-1.57.77-3.1 3.24-3.1h2.51v-4.9s-2.28-.39-4.46-.39c-4.55 0-7.52 2.77-7.52 7.77V24h-5.07v5.94h5.07v13.83A20.05 20.05 0 0 0 24 44c1.84 0 3.63-.25 5.33-.72V29.94h.25z"/>
</svg>
