<svg xmlns="http://www.w3.org/2000/svg" viewBox="0 0 48 48">
  <path fill="#FFC107" d="M43.6 20.5H42V20H24v8h11.3C33.9 32.6 29.5 36 24 36c-6.6 0-12-5.4-12-12S17.4 12 24 12c3 0 5.7 1.1 7.7 2.9l5.7-5.7C33.7 5.3 29.1 3.5 24 3.5 12.4 3.5 3 12.9 3 24.5S12.4 45.5 24 45.5 45 36.1 45 24.5c0-1.4-.1-2.7-.4-4z"/>
  <path fill="#FF3D00" d="M6.3 14.7l6.6 4.8C14.4 16.4 18.8 12 24 12c3 0 5.7 1.1 7.7 2.9l5.7-5.7C33.7 5.3 29.1 3.5 24 3.5 16 3.5 9 7.9 6.3 14.7z"/>
  <path fill="#4CAF50" d="M24 45.5c5.4 0 10.3-2.1 13.9-5.5l-6.4-5.2c-2 1.5-4.5 2.4-7.5 2.4-5.4 0-9.9-3.6-11.5-8.5l-6.6 5.1C8.5 39.8 15.7 45.5 24 45.5z"/>
  <path fill="#1976D2" d="M43.6 20.5H42V20H24v8h11.3c-1.3 3.8-5.1 6.5-9.3 6.5-2.9 0-5.5-1.2-7.3-3l-6.6 5.1C14.5 39.8 19 42.5 24 42.5 35.6 42.5 45 33.1 45 21.5c0-1.4-.1-2.7-.4-4z"/>
</svg>
